<?xml version="1.0" encoding="utf-8"?>
<!-- Generator: Adobe Illustrator 21.0.0, SVG Export Plug-In . SVG Version: 6.00 Build 0)  -->
<svg version="1.1" id="Layer_1" focusable="false" xmlns="http://www.w3.org/2000/svg" xmlns:xlink="http://www.w3.org/1999/xlink"
	 x="0px" y="0px" viewBox="0 0 448 440.4" style="enable-background:new 0 0 448 440.4;" xml:space="preserve">
<style type="text/css">
	.st0{fill:#2196F3;}
</style>
<path class="st0" d="M134.1,150.1H436c6.6,0,12-5.4,12-12v-56c0-6.6-5.4-12-12-12H134.1V24c0-21.4-25.9-32.1-41-17L7,93.1
	c-9.4,9.4-9.4,24.6,0,33.9l86.1,86.1c15.1,15.1,41,4.4,41-17L134.1,150.1L134.1,150.1z"/>
<path class="st0" d="M313.9,290.3H12c-6.6,0-12,5.4-12,12v56c0,6.6,5.4,12,12,12h301.9v46.1c0,21.4,25.9,32.1,41,17l86.1-86.1
	c9.4-9.4,9.4-24.6,0-33.9l-86.1-86.1c-15.1-15.1-41-4.4-41,17V290.3L313.9,290.3z"/>
</svg>
